<svg width="131" height="44" viewBox="0 0 131 44" fill="none" xmlns="http://www.w3.org/2000/svg">
<g clip-path="url(#clip0)">
<path d="M120.525 0.000142264H10.4342C10.0329 0.000142264 9.6364 0.000142264 9.23616 0.00233094C8.90113 0.00451962 8.56877 0.0108778 8.23052 0.0162291C7.49569 0.0248763 6.76258 0.0895238 6.03758 0.20961C5.31359 0.33231 4.61228 0.563634 3.95737 0.89576C3.30326 1.23069 2.70558 1.66591 2.18602 2.18561C1.66373 2.70385 1.22836 3.30287 0.896646 3.95963C0.564022 4.61509 0.33338 5.31747 0.212685 6.04251C0.0908421 6.76664 0.0252775 7.49912 0.0165792 8.23338C0.00642377 8.5689 0.00535132 8.90554 0 9.24111V34.5359C0.00535132 34.8757 0.00642377 35.2049 0.0165792 35.5448C0.0252801 36.279 0.0908448 37.0115 0.212685 37.7355C0.333047 38.461 0.563703 39.1638 0.896646 39.8195C1.2282 40.4741 1.66364 41.0707 2.18602 41.5861C2.70361 42.1081 3.30168 42.5436 3.95737 42.876C4.61227 43.209 5.31351 43.4417 6.03758 43.5663C6.76271 43.6854 7.49574 43.7501 8.23052 43.7598C8.56877 43.7672 8.90113 43.7715 9.23616 43.7715C9.63639 43.7737 10.0329 43.7737 10.4342 43.7737H120.525C120.918 43.7737 121.318 43.7737 121.711 43.7715C122.044 43.7715 122.386 43.7672 122.72 43.7598C123.453 43.7506 124.185 43.6859 124.909 43.5663C125.635 43.4408 126.339 43.2082 126.997 42.876C127.652 42.5434 128.249 42.1079 128.767 41.5861C129.288 41.0687 129.724 40.4726 130.06 39.8195C130.39 39.1633 130.619 38.4606 130.737 37.7355C130.859 37.0114 130.927 36.2791 130.94 35.5448C130.944 35.2049 130.945 34.8757 130.945 34.5359C130.953 34.1383 130.953 33.743 130.953 33.3389V10.4359C130.953 10.0351 130.953 9.63759 130.945 9.24111C130.945 8.90554 130.944 8.5689 130.94 8.23333C130.927 7.49901 130.859 6.76669 130.737 6.04247C130.618 5.31784 130.39 4.61552 130.06 3.95959C129.384 2.64318 128.313 1.57164 126.997 0.895661C126.339 0.564348 125.635 0.333084 124.909 0.209511C124.185 0.0888962 123.453 0.0242262 122.72 0.0160759C122.386 0.0107355 122.044 0.00432264 121.711 0.00218868C121.318 0 120.918 0 120.525 0V0.000142264Z" fill="white"/>
<path d="M9.24121 42.816C8.90779 42.816 8.58242 42.8117 8.25161 42.8043C7.56632 42.7954 6.88263 42.7357 6.20614 42.6258C5.57535 42.5172 4.96429 42.3151 4.39311 42.0262C3.82716 41.7398 3.31097 41.3641 2.86432 40.9137C2.41119 40.4686 2.03395 39.9524 1.74753 39.3855C1.45796 38.8149 1.25756 38.2033 1.15331 37.5719C1.04073 36.8936 0.979815 36.2076 0.971099 35.5201C0.964161 35.2893 0.955078 34.5208 0.955078 34.5208V9.24094C0.955078 9.24094 0.964752 8.4843 0.971154 8.26201C0.979499 7.57551 1.04006 6.89064 1.1523 6.21333C1.25674 5.58028 1.4573 4.9669 1.74703 4.39443C2.03239 3.82791 2.40754 3.31129 2.85794 2.8646C3.30782 2.41367 3.82566 2.0361 4.39257 1.74567C4.96244 1.45773 5.57235 1.25707 6.20186 1.15042C6.88057 1.03941 7.56664 0.979403 8.25431 0.970882L9.24175 0.95752H121.705L122.705 0.971418C123.386 0.979516 124.066 1.03899 124.738 1.14935C125.374 1.25734 125.99 1.4594 126.567 1.74888C127.703 2.33418 128.627 3.26019 129.21 4.3971C129.495 4.96562 129.692 5.57399 129.795 6.20158C129.909 6.88445 129.973 7.5747 129.986 8.26683C129.989 8.57674 129.989 8.90964 129.989 9.24094C129.997 9.65132 129.997 10.042 129.997 10.4358V33.3388C129.997 33.7364 129.997 34.1243 129.989 34.5155C129.989 34.8713 129.989 35.1973 129.984 35.5329C129.972 36.2126 129.909 36.8906 129.797 37.5612C129.695 38.1971 129.496 38.8135 129.206 39.3888C128.918 39.9495 128.543 40.4613 128.095 40.9052C127.648 41.358 127.131 41.7358 126.564 42.0242C125.989 42.3152 125.374 42.5181 124.738 42.6258C124.062 42.7363 123.378 42.796 122.693 42.8043C122.372 42.8117 122.037 42.816 121.711 42.816L120.524 42.8182L9.24121 42.816Z" fill="black"/>
<path d="M27.1054 22.2159C27.1172 21.3025 27.3598 20.4069 27.8107 19.6125C28.2616 18.8181 28.9061 18.1506 29.6843 17.6722C29.1899 16.9661 28.5377 16.3851 27.7796 15.9752C27.0214 15.5653 26.178 15.3379 25.3166 15.3109C23.4789 15.118 21.6974 16.4105 20.761 16.4105C19.8064 16.4105 18.3646 15.3301 16.812 15.362C15.8078 15.3945 14.8291 15.6865 13.9712 16.2096C13.1134 16.7328 12.4057 17.4693 11.9171 18.3472C9.80069 22.0115 11.3794 27.3968 13.4068 30.3588C14.4211 31.8092 15.6066 33.4293 17.1577 33.3718C18.6757 33.3089 19.2426 32.4039 21.0748 32.4039C22.8901 32.4039 23.4219 33.3718 25.0046 33.3353C26.6334 33.3089 27.6596 31.8785 28.6384 30.4144C29.3672 29.3809 29.928 28.2387 30.3 27.0301C29.3537 26.6299 28.5462 25.9599 27.9781 25.1038C27.41 24.2477 27.1065 23.2434 27.1054 22.2159Z" fill="white"/>
<path d="M24.1153 13.3636C25.0034 12.2975 25.4409 10.9272 25.335 9.5437C23.9782 9.6862 22.7249 10.3346 21.8248 11.3598C21.3847 11.8607 21.0477 12.4433 20.8329 13.0745C20.6182 13.7057 20.5299 14.373 20.5732 15.0383C21.2519 15.0453 21.9232 14.8982 22.5368 14.6081C23.1503 14.318 23.6901 13.8925 24.1153 13.3636Z" fill="white"/>
<path d="M46.2917 29.7003H41.1118L39.8678 33.3734H37.6738L42.5802 19.7839H44.8597L49.766 33.3734H47.5346L46.2917 29.7003ZM41.6483 28.0053H45.7542L43.7301 22.0442H43.6735L41.6483 28.0053Z" fill="white"/>
<path d="M60.3622 28.4193C60.3622 31.4982 58.7143 33.4764 56.2274 33.4764C55.5975 33.5093 54.971 33.3642 54.4197 33.0576C53.8683 32.7511 53.4145 32.2954 53.1101 31.7429H53.063V36.6504H51.0293V23.4649H52.9979V25.1128H53.0353C53.3537 24.5629 53.8152 24.1097 54.3707 23.8012C54.9262 23.4928 55.555 23.3407 56.19 23.3612C58.7046 23.3612 60.3622 25.349 60.3622 28.4193ZM58.2718 28.4193C58.2718 26.4134 57.2352 25.0946 55.6535 25.0946C54.0997 25.0946 53.0545 26.4412 53.0545 28.4193C53.0545 30.4156 54.0997 31.7526 55.6535 31.7526C57.2352 31.7526 58.2718 30.4434 58.2718 28.4193Z" fill="white"/>
<path d="M71.2665 28.4193C71.2665 31.4982 69.6186 33.4763 67.1317 33.4763C66.5018 33.5093 65.8753 33.3642 65.3239 33.0576C64.7726 32.7511 64.3188 32.2954 64.0144 31.7429H63.9673V36.6503H61.9336V23.4649H63.9021V25.1128H63.9395C64.2579 24.5629 64.7194 24.1096 65.275 23.8012C65.8305 23.4928 66.4592 23.3407 67.0943 23.3612C69.609 23.3612 71.2665 25.349 71.2665 28.4193ZM69.1761 28.4193C69.1761 26.4134 68.1395 25.0946 66.5578 25.0946C65.004 25.0946 63.9588 26.4412 63.9588 28.4193C63.9588 30.4156 65.004 31.7526 66.5578 31.7526C68.1395 31.7526 69.1761 30.4434 69.1761 28.4193Z" fill="white"/>
<path d="M78.4744 29.5868C78.6251 30.9344 79.9343 31.8192 81.7232 31.8192C83.4374 31.8192 84.6707 30.9344 84.6707 29.7193C84.6707 28.6645 83.9269 28.0329 82.1657 27.6L80.4045 27.1758C77.9091 26.573 76.7506 25.406 76.7506 23.5123C76.7506 21.1676 78.794 19.5571 81.6955 19.5571C84.567 19.5571 86.5355 21.1676 86.6018 23.5123H84.5488C84.4259 22.1561 83.3049 21.3375 81.6666 21.3375C80.0283 21.3375 78.9072 22.1658 78.9072 23.3712C78.9072 24.332 79.6232 24.8973 81.3748 25.3301L82.872 25.6977C85.6603 26.3571 86.8187 27.4771 86.8187 29.4649C86.8187 32.0073 84.7936 33.5996 81.5725 33.5996C78.5588 33.5996 76.524 32.0447 76.3926 29.5867L78.4744 29.5868Z" fill="white"/>
<path d="M91.2085 21.1206V23.4653H93.0926V25.0758H91.2085V30.5379C91.2085 31.3864 91.5858 31.7818 92.414 31.7818C92.6377 31.7779 92.861 31.7622 93.083 31.7348V33.3357C92.7106 33.4053 92.3321 33.4368 91.9534 33.4297C89.9475 33.4297 89.1652 32.6763 89.1652 30.7548V25.0758H87.7246V23.4653H89.1652V21.1206H91.2085Z" fill="white"/>
<path d="M94.1836 28.4202C94.1836 25.3029 96.0196 23.344 98.8826 23.344C101.755 23.344 103.583 25.3028 103.583 28.4202C103.583 31.5462 101.765 33.4965 98.8826 33.4965C96.0014 33.4965 94.1836 31.5462 94.1836 28.4202ZM101.511 28.4202C101.511 26.2818 100.531 25.0197 98.8826 25.0197C97.2347 25.0197 96.2558 26.2914 96.2558 28.4202C96.2558 30.5672 97.2347 31.8198 98.8826 31.8198C100.531 31.8198 101.51 30.5672 101.51 28.4202H101.511Z" fill="white"/>
<path d="M105.258 23.465H107.197V25.1514H107.245C107.376 24.6247 107.684 24.1592 108.118 23.8332C108.552 23.5072 109.085 23.3406 109.628 23.3613C109.862 23.3605 110.096 23.3859 110.325 23.4372V25.3394C110.029 25.249 109.72 25.2075 109.411 25.2166C109.115 25.2046 108.821 25.2567 108.547 25.3693C108.274 25.4818 108.028 25.6523 107.827 25.8688C107.625 26.0854 107.473 26.343 107.381 26.6238C107.289 26.9047 107.258 27.2023 107.292 27.4961V33.3728H105.258V23.465Z" fill="white"/>
<path d="M119.703 30.4636C119.43 32.2622 117.678 33.4965 115.437 33.4965C112.555 33.4965 110.766 31.5654 110.766 28.4673C110.766 25.3595 112.564 23.344 115.351 23.344C118.093 23.344 119.816 25.227 119.816 28.2311V28.9279H112.819V29.0508C112.786 29.4154 112.832 29.7827 112.953 30.1284C113.073 30.474 113.266 30.79 113.518 31.0555C113.77 31.3209 114.076 31.5297 114.415 31.6679C114.754 31.8061 115.118 31.8706 115.484 31.8571C115.964 31.9022 116.447 31.7909 116.859 31.5398C117.271 31.2887 117.591 30.9112 117.772 30.4636H119.703ZM112.828 27.5065H117.782C117.8 27.1787 117.75 26.8506 117.636 26.5428C117.521 26.2351 117.344 25.9543 117.116 25.7182C116.888 25.4821 116.613 25.2957 116.31 25.1707C116.006 25.0457 115.68 24.9848 115.351 24.9919C115.02 24.9899 114.692 25.0535 114.385 25.1791C114.079 25.3047 113.8 25.4897 113.566 25.7235C113.331 25.9573 113.145 26.2352 113.019 26.5412C112.892 26.8473 112.827 27.1753 112.828 27.5065Z" fill="white"/>
<path d="M41.3938 9.55502C41.8201 9.52442 42.248 9.58883 42.6464 9.74361C43.0449 9.89838 43.404 10.1397 43.698 10.4501C43.9919 10.7605 44.2133 11.1322 44.3461 11.5385C44.479 11.9448 44.52 12.3755 44.4662 12.7996C44.4662 14.8857 43.3388 16.0848 41.3938 16.0848H39.0352V9.55502H41.3938ZM40.0493 15.1614H41.2805C41.5851 15.1796 41.89 15.1296 42.173 15.0151C42.4559 14.9006 42.7097 14.7245 42.916 14.4996C43.1223 14.2746 43.2758 14.0065 43.3654 13.7147C43.455 13.4229 43.4784 13.1149 43.4339 12.8129C43.4751 12.5121 43.4494 12.206 43.3584 11.9163C43.2675 11.6267 43.1136 11.3608 42.9077 11.1376C42.7019 10.9144 42.4493 10.7396 42.168 10.6255C41.8867 10.5114 41.5836 10.461 41.2805 10.4778H40.0493V15.1614Z" fill="white"/>
<path d="M45.6126 13.6188C45.5816 13.295 45.6186 12.9682 45.7213 12.6596C45.824 12.3509 45.9901 12.0671 46.2089 11.8263C46.4277 11.5856 46.6944 11.3932 46.9919 11.2616C47.2894 11.13 47.6111 11.062 47.9364 11.062C48.2617 11.062 48.5835 11.13 48.881 11.2616C49.1785 11.3932 49.4452 11.5856 49.664 11.8263C49.8828 12.0671 50.0489 12.3509 50.1515 12.6596C50.2542 12.9682 50.2913 13.295 50.2603 13.6188C50.2919 13.943 50.2553 14.2702 50.1528 14.5793C50.0504 14.8885 49.8844 15.1728 49.6656 15.414C49.4467 15.6553 49.1798 15.848 48.882 15.9799C48.5842 16.1118 48.2621 16.18 47.9364 16.18C47.6107 16.18 47.2886 16.1118 46.9908 15.9799C46.693 15.848 46.4261 15.6553 46.2073 15.414C45.9884 15.1728 45.8224 14.8885 45.72 14.5793C45.6176 14.2702 45.581 13.943 45.6126 13.6188ZM49.26 13.6188C49.26 12.5506 48.7802 11.926 47.938 11.926C47.0927 11.926 46.6172 12.5506 46.6172 13.6188C46.6172 14.6955 47.0927 15.3154 47.938 15.3154C48.7802 15.3153 49.26 14.6912 49.26 13.6188Z" fill="white"/>
<path d="M56.4369 16.0855H55.4281L54.4096 12.4562H54.3327L53.3185 16.0855H52.3192L50.9609 11.1577H51.9473L52.8301 14.9179H52.9028L53.9159 11.1577H54.8488L55.862 14.9179H55.9389L56.8174 11.1577H57.7899L56.4369 16.0855Z" fill="white"/>
<path d="M58.9336 11.1578H59.8698V11.9406H59.9424C60.0657 11.6594 60.2736 11.4238 60.5372 11.2664C60.8008 11.109 61.107 11.0378 61.413 11.0627C61.6527 11.0446 61.8935 11.0808 62.1174 11.1684C62.3413 11.2561 62.5426 11.393 62.7064 11.569C62.8702 11.745 62.9923 11.9557 63.0636 12.1853C63.135 12.4149 63.1538 12.6576 63.1186 12.8955V16.0855H62.1461V13.1397C62.1461 12.3478 61.802 11.954 61.0827 11.954C60.9199 11.9464 60.7574 11.9741 60.6063 12.0352C60.4553 12.0963 60.3192 12.1893 60.2074 12.3079C60.0957 12.4265 60.0109 12.5679 59.9589 12.7224C59.9069 12.8768 59.8889 13.0407 59.9061 13.2027V16.0855H58.9336V11.1578Z" fill="white"/>
<path d="M64.668 9.23364H65.6405V16.085H64.668V9.23364Z" fill="white"/>
<path d="M66.9914 13.6188C66.9605 13.295 66.9975 12.9682 67.1003 12.6595C67.203 12.3508 67.3691 12.067 67.5879 11.8263C67.8067 11.5855 68.0735 11.3932 68.371 11.2616C68.6685 11.1299 68.9902 11.062 69.3156 11.062C69.6409 11.062 69.9626 11.1299 70.2602 11.2616C70.5577 11.3932 70.8244 11.5855 71.0432 11.8263C71.262 12.067 71.4281 12.3508 71.5309 12.6595C71.6336 12.9682 71.6706 13.295 71.6397 13.6188C71.6712 13.943 71.6346 14.2702 71.5321 14.5794C71.4297 14.8886 71.2637 15.1729 71.0448 15.4141C70.8259 15.6553 70.559 15.848 70.2612 15.9799C69.9634 16.1118 69.6413 16.18 69.3156 16.18C68.9899 16.18 68.6677 16.1118 68.3699 15.9799C68.0721 15.848 67.8052 15.6553 67.5863 15.4141C67.3675 15.1729 67.2015 14.8886 67.099 14.5794C66.9965 14.2702 66.9599 13.943 66.9914 13.6188ZM70.6389 13.6188C70.6389 12.5507 70.159 11.926 69.3169 11.926C68.4716 11.926 67.996 12.5507 67.996 13.6188C67.996 14.6955 68.4716 15.3154 69.3169 15.3154C70.159 15.3154 70.6389 14.6913 70.6389 13.6188Z" fill="white"/>
<path d="M72.6641 14.6913C72.6641 13.8043 73.3245 13.2929 74.4968 13.2202L75.8316 13.1433V12.7179C75.8316 12.1975 75.4875 11.9036 74.8228 11.9036C74.2799 11.9036 73.9037 12.1029 73.7958 12.4513H72.8543C72.9537 11.6049 73.7499 11.062 74.8677 11.062C76.1031 11.062 76.7999 11.677 76.7999 12.7179V16.0849H75.8637V15.3923H75.7868C75.6306 15.6407 75.4113 15.8433 75.1512 15.9792C74.8912 16.1151 74.5997 16.1796 74.3066 16.166C74.0998 16.1876 73.8907 16.1655 73.6929 16.1013C73.4951 16.037 73.3129 15.932 73.1581 15.7931C73.0034 15.6541 72.8795 15.4843 72.7944 15.2945C72.7093 15.1048 72.6649 14.8993 72.6641 14.6913ZM75.8316 14.2702V13.8582L74.6283 13.9352C73.9497 13.9806 73.6419 14.2114 73.6419 14.6458C73.6419 15.0894 74.0266 15.3474 74.5557 15.3474C74.7107 15.3631 74.8673 15.3475 75.0161 15.3014C75.1649 15.2554 75.303 15.1798 75.422 15.0793C75.5411 14.9788 75.6387 14.8554 75.7091 14.7164C75.7794 14.5774 75.8211 14.4257 75.8316 14.2702Z" fill="white"/>
<path d="M78.0781 13.619C78.0781 12.0619 78.8786 11.0755 80.1236 11.0755C80.4316 11.0613 80.7372 11.1351 81.0048 11.2882C81.2724 11.4413 81.4909 11.6674 81.6347 11.9401H81.7074V9.23364H82.6799V16.085H81.748V15.3064H81.6711C81.5161 15.5773 81.29 15.8006 81.0172 15.9521C80.7445 16.1037 80.4354 16.1777 80.1236 16.1662C78.87 16.1663 78.0781 15.1798 78.0781 13.619ZM79.0827 13.619C79.0827 14.6642 79.5754 15.2931 80.3994 15.2931C81.219 15.2931 81.7256 14.6551 81.7256 13.6233C81.7256 12.5963 81.2137 11.9492 80.3994 11.9492C79.5807 11.9492 79.0827 12.5824 79.0827 13.619Z" fill="white"/>
<path d="M86.7044 13.6188C86.6734 13.295 86.7104 12.9682 86.8131 12.6596C86.9158 12.3509 87.0819 12.0671 87.3007 11.8263C87.5195 11.5856 87.7862 11.3932 88.0837 11.2616C88.3812 11.13 88.7029 11.062 89.0282 11.062C89.3535 11.062 89.6752 11.13 89.9727 11.2616C90.2702 11.3932 90.5369 11.5856 90.7557 11.8263C90.9745 12.0671 91.1406 12.3509 91.2433 12.6596C91.346 12.9682 91.383 13.295 91.3521 13.6188C91.3836 13.943 91.347 14.2702 91.2446 14.5793C91.1422 14.8885 90.9762 15.1728 90.7574 15.414C90.5385 15.6553 90.2716 15.848 89.9738 15.9799C89.676 16.1118 89.3539 16.18 89.0282 16.18C88.7025 16.18 88.3804 16.1118 88.0826 15.9799C87.7848 15.848 87.5179 15.6553 87.2991 15.414C87.0802 15.1728 86.9142 14.8885 86.8118 14.5793C86.7094 14.2702 86.6728 13.943 86.7044 13.6188ZM90.3518 13.6188C90.3518 12.5506 89.8719 11.926 89.0298 11.926C88.1845 11.926 87.709 12.5506 87.709 13.6188C87.709 14.6955 88.1845 15.3154 89.0298 15.3154C89.8719 15.3153 90.3518 14.6912 90.3518 13.6188Z" fill="white"/>
<path d="M92.6562 11.1578H93.5925V11.9406H93.6652C93.7885 11.6594 93.9964 11.4238 94.26 11.2664C94.5236 11.109 94.8297 11.0378 95.1357 11.0627C95.3755 11.0446 95.6161 11.0808 95.84 11.1684C96.0639 11.2561 96.2653 11.393 96.4292 11.569C96.593 11.745 96.7151 11.9557 96.7864 12.1853C96.8578 12.4149 96.8765 12.6576 96.8413 12.8955V16.0855H95.8688V13.1397C95.8688 12.3478 95.5247 11.954 94.8055 11.954C94.6427 11.9464 94.4802 11.9741 94.3291 12.0352C94.178 12.0963 94.0419 12.1893 93.9302 12.3079C93.8184 12.4265 93.7336 12.5679 93.6816 12.7224C93.6296 12.8768 93.6116 13.0407 93.6289 13.2027V16.0855H92.6562V11.1578Z" fill="white"/>
<path d="M102.336 9.92993V11.1793H103.404V11.9984H102.336V14.5323C102.336 15.0485 102.549 15.2745 103.033 15.2745C103.157 15.2741 103.28 15.2666 103.404 15.252V16.0621C103.229 16.0934 103.052 16.11 102.875 16.1118C101.793 16.1118 101.362 15.7313 101.362 14.7813V11.9984H100.58V11.1792H101.362V9.92993H102.336Z" fill="white"/>
<path d="M104.732 9.23364H105.696V11.9492H105.773C105.903 11.6654 106.116 11.4284 106.385 11.2704C106.654 11.1124 106.965 11.0412 107.276 11.0664C107.514 11.0535 107.753 11.0933 107.974 11.1831C108.196 11.2728 108.394 11.4104 108.556 11.5858C108.719 11.7613 108.84 11.9704 108.912 12.1981C108.984 12.4259 109.005 12.6668 108.973 12.9035V16.085H107.999V13.1434C107.999 12.3563 107.633 11.9577 106.946 11.9577C106.779 11.944 106.61 11.967 106.453 12.025C106.296 12.0831 106.153 12.1748 106.035 12.2938C105.917 12.4128 105.826 12.5562 105.769 12.7139C105.712 12.8717 105.69 13.0399 105.705 13.207V16.085H104.732V9.23364Z" fill="white"/>
<path d="M114.644 14.7545C114.511 15.2048 114.225 15.5944 113.835 15.855C113.444 16.1156 112.975 16.2307 112.508 16.1801C112.184 16.1887 111.861 16.1265 111.563 15.9979C111.265 15.8692 110.998 15.6773 110.781 15.4353C110.565 15.1933 110.403 14.907 110.309 14.5964C110.214 14.2858 110.188 13.9583 110.232 13.6366C110.189 13.3139 110.215 12.9857 110.31 12.6741C110.405 12.3626 110.565 12.0751 110.781 11.8309C110.996 11.5868 111.261 11.3918 111.559 11.2592C111.856 11.1266 112.178 11.0594 112.504 11.0621C113.875 11.0621 114.702 11.9989 114.702 13.5463V13.8856H111.223V13.9401C111.207 14.121 111.23 14.303 111.289 14.4745C111.349 14.6461 111.443 14.8033 111.567 14.9362C111.69 15.0691 111.84 15.1748 112.007 15.2463C112.174 15.3179 112.354 15.3538 112.535 15.3518C112.768 15.3797 113.003 15.3379 113.212 15.2315C113.421 15.1251 113.593 14.959 113.707 14.7544L114.644 14.7545ZM111.223 13.1664H113.712C113.724 13.001 113.701 12.8349 113.646 12.6787C113.59 12.5225 113.502 12.3797 113.388 12.2595C113.274 12.1393 113.135 12.0443 112.982 11.9806C112.829 11.917 112.664 11.886 112.499 11.8898C112.33 11.8877 112.163 11.9193 112.008 11.9827C111.852 12.0461 111.71 12.1401 111.591 12.2591C111.473 12.378 111.379 12.5196 111.315 12.6754C111.252 12.8313 111.22 12.9982 111.223 13.1664Z" fill="white"/>
</g>
<defs>
<clipPath id="clip0">
<rect width="131" height="44" fill="white"/>
</clipPath>
</defs>
</svg>
