<svg width="148" height="44" viewBox="0 0 148 44" fill="none" xmlns="http://www.w3.org/2000/svg">
<path d="M142.528 0H5.73537C2.71343 0 0.263672 2.44976 0.263672 5.47169V38.3019C0.263672 41.3238 2.71343 43.7736 5.73537 43.7736H142.528C145.55 43.7736 147.999 41.3238 147.999 38.3019V5.47169C147.999 2.44976 145.55 0 142.528 0Z" fill="black"/>
<path d="M142.528 0.875471C143.747 0.875471 144.916 1.35971 145.778 2.22167C146.64 3.08363 147.124 4.2527 147.124 5.47169V38.3019C147.124 39.5209 146.64 40.6899 145.778 41.5519C144.916 42.4138 143.747 42.8981 142.528 42.8981H5.73537C4.51637 42.8981 3.3473 42.4138 2.48535 41.5519C1.62339 40.6899 1.13914 39.5209 1.13914 38.3019V5.47169C1.13914 4.2527 1.62339 3.08363 2.48535 2.22167C3.3473 1.35971 4.51637 0.875471 5.73537 0.875471H142.528ZM142.528 0H5.73537C4.28418 0 2.89244 0.57648 1.86629 1.60262C0.840152 2.62876 0.263672 4.02051 0.263672 5.47169V38.3019C0.263672 39.753 0.840152 41.1448 1.86629 42.1709C2.89244 43.1971 4.28418 43.7736 5.73537 43.7736H142.528C143.979 43.7736 145.371 43.1971 146.397 42.1709C147.423 41.1448 147.999 39.753 147.999 38.3019V5.47169C147.999 4.02051 147.423 2.62876 146.397 1.60262C145.371 0.57648 143.979 0 142.528 0Z" fill="white"/>
<path d="M52.1574 11.2066C52.1754 11.6079 52.1119 12.0087 51.9708 12.3848C51.8298 12.761 51.6141 13.1047 51.3366 13.3952C51.0257 13.7162 50.6506 13.9679 50.2357 14.1339C49.8208 14.2998 49.3756 14.3763 48.9291 14.3583C48.48 14.3683 48.0337 14.286 47.6177 14.1166C47.2017 13.9472 46.8249 13.6942 46.5106 13.3734C46.1864 13.0587 45.9306 12.6806 45.7592 12.2625C45.5879 11.8445 45.5046 11.3956 45.5147 10.9439C45.5031 10.4904 45.5856 10.0394 45.757 9.61941C45.9284 9.19939 46.185 8.81944 46.5106 8.50355C46.9981 8.02716 47.6156 7.70549 48.2854 7.57893C48.9551 7.45237 49.6474 7.52658 50.2751 7.79223C50.6697 7.95444 51.0217 8.20532 51.3038 8.52543L50.7238 9.10543C50.5065 8.84364 50.2311 8.63611 49.9196 8.49934C49.608 8.36256 49.2689 8.30031 48.9291 8.31751C48.5873 8.31583 48.2486 8.3832 47.9335 8.51557C47.6183 8.64795 47.3331 8.8426 47.095 9.08786C46.8569 9.33312 46.6708 9.62394 46.5478 9.94287C46.4248 10.2618 46.3675 10.6023 46.3793 10.9439C46.3721 11.454 46.5162 11.9548 46.7933 12.3832C47.0704 12.8115 47.4682 13.1481 47.9365 13.3507C48.4047 13.5532 48.9224 13.6125 49.4243 13.5211C49.9262 13.4297 50.3898 13.1917 50.7566 12.8371C51.0941 12.4717 51.2917 11.9989 51.3148 11.502H48.9291V10.7141H52.1136C52.1381 10.8772 52.1527 11.0417 52.1574 11.2066Z" fill="white" stroke="white" stroke-width="0.2" stroke-miterlimit="10"/>
<path d="M57.1696 8.47045H54.2149V10.5497H56.907V11.3377H54.2149V13.4169H57.1696V14.2267H53.3613V7.66064H57.1696V8.47045Z" fill="white" stroke="white" stroke-width="0.2" stroke-miterlimit="10"/>
<path d="M60.7593 14.2267H59.9166V8.47045H58.0781V7.66064H62.6415V8.47045H60.7593V14.2267Z" fill="white" stroke="white" stroke-width="0.2" stroke-miterlimit="10"/>
<path d="M65.8574 14.2267V7.66064H66.7001V14.2267H65.8574Z" fill="white" stroke="white" stroke-width="0.2" stroke-miterlimit="10"/>
<path d="M70.4428 14.2267H69.6002V8.47045H67.7617V7.66064H72.2704V8.47045H70.4428V14.2267Z" fill="white" stroke="white" stroke-width="0.2" stroke-miterlimit="10"/>
<path d="M80.8188 13.3727C80.5028 13.689 80.1275 13.9399 79.7144 14.1111C79.3013 14.2823 78.8585 14.3705 78.4113 14.3705C77.9641 14.3705 77.5213 14.2823 77.1082 14.1111C76.6951 13.9399 76.3198 13.689 76.0038 13.3727C75.6855 13.0552 75.4358 12.6758 75.2701 12.2579C75.1044 11.84 75.0264 11.3925 75.0407 10.9432C75.0264 10.4939 75.1044 10.0465 75.2701 9.62856C75.4358 9.21066 75.6855 8.83123 76.0038 8.51379C76.313 8.18855 76.6871 7.93186 77.1018 7.76032C77.5165 7.58877 77.9627 7.5062 78.4113 7.51794C78.8593 7.51086 79.304 7.59555 79.7181 7.76682C80.1321 7.93808 80.5067 8.19229 80.8188 8.51379C81.1335 8.83388 81.3809 9.21377 81.5463 9.63103C81.7117 10.0483 81.7918 10.4945 81.7819 10.9432C81.7962 11.3925 81.7182 11.84 81.5525 12.2579C81.3869 12.6758 81.1371 13.0552 80.8188 13.3727ZM76.6275 12.8255C76.8607 13.0617 77.1384 13.2493 77.4446 13.3773C77.7508 13.5054 78.0794 13.5713 78.4113 13.5713C78.7432 13.5713 79.0718 13.5054 79.378 13.3773C79.6842 13.2493 79.962 13.0617 80.1951 12.8255C80.4375 12.5771 80.6274 12.2824 80.7533 11.959C80.8793 11.6356 80.9388 11.2901 80.9283 10.9432C80.9331 10.5932 80.8667 10.2459 80.7331 9.92228C80.5996 9.59871 80.4016 9.30567 80.1513 9.06096C79.9182 8.82472 79.6404 8.63714 79.3342 8.50911C79.028 8.38107 78.6994 8.31514 78.3675 8.31514C78.0356 8.31514 77.707 8.38107 77.4008 8.50911C77.0946 8.63714 76.8169 8.82472 76.5838 9.06096C76.3492 9.31292 76.1674 9.60923 76.049 9.93248C75.9306 10.2557 75.878 10.5994 75.8943 10.9432C75.8838 11.2901 75.9433 11.6356 76.0693 11.959C76.1952 12.2824 76.3851 12.5771 76.6275 12.8255Z" fill="white" stroke="white" stroke-width="0.2" stroke-miterlimit="10"/>
<path d="M82.9727 14.2267V7.66064H83.9904L87.1859 12.7712V11.5018V7.66064H88.0285V14.2267H87.153L83.8153 8.87536V10.1339V14.2267H82.9727Z" fill="white" stroke="white" stroke-width="0.2" stroke-miterlimit="10"/>
<path d="M74.8316 23.8015C73.9096 23.8036 73.0089 24.0791 72.2434 24.5932C71.478 25.1073 70.8822 25.8367 70.5313 26.6894C70.1805 27.5421 70.0904 28.4797 70.2724 29.3835C70.4544 30.2874 70.9003 31.1171 71.5538 31.7675C72.2073 32.4179 73.039 32.86 73.9438 33.0377C74.8485 33.2155 75.7857 33.121 76.6367 32.7661C77.4877 32.4113 78.2144 31.8121 78.7248 31.0442C79.2353 30.2764 79.5066 29.3744 79.5044 28.4524C79.5133 27.8373 79.3984 27.2267 79.1665 26.657C78.9345 26.0872 78.5903 25.57 78.1543 25.136C77.7183 24.702 77.1994 24.3603 76.6286 24.131C76.0578 23.9017 75.4466 23.7896 74.8316 23.8015ZM74.8316 31.2758C74.2664 31.3153 73.7025 31.1839 73.213 30.8987C72.7235 30.6134 72.3312 30.1875 72.087 29.6763C71.8428 29.1652 71.758 28.5923 71.8437 28.0323C71.9293 27.4723 72.1815 26.951 72.5674 26.5362C72.9532 26.1214 73.4549 25.8323 74.0073 25.7064C74.5597 25.5806 75.1371 25.6238 75.6646 25.8304C76.1921 26.0371 76.6452 26.3977 76.965 26.8653C77.2848 27.3329 77.4566 27.8859 77.458 28.4524C77.4756 28.8113 77.4212 29.1702 77.2979 29.5078C77.1747 29.8454 76.985 30.1549 76.7403 30.418C76.4955 30.6812 76.2005 30.8926 75.8727 31.0399C75.5449 31.1873 75.1909 31.2675 74.8316 31.2758ZM64.6323 23.8015C63.7103 23.8036 62.8096 24.0791 62.0442 24.5932C61.2788 25.1073 60.6829 25.8367 60.3321 26.6894C59.9813 27.5421 59.8911 28.4797 60.0731 29.3835C60.2551 30.2874 60.7011 31.1171 61.3546 31.7675C62.0081 32.4179 62.8398 32.86 63.7445 33.0377C64.6493 33.2155 65.5864 33.121 66.4374 32.7661C67.2884 32.4113 68.0151 31.8121 68.5256 31.0442C69.036 30.2764 69.3073 29.3744 69.3052 28.4524C69.3141 27.8373 69.1992 27.2267 68.9672 26.657C68.7353 26.0872 68.391 25.57 67.955 25.136C67.519 24.702 67.0002 24.3603 66.4293 24.131C65.8585 23.9017 65.2474 23.7896 64.6323 23.8015ZM64.6323 31.2758C64.0672 31.3153 63.5032 31.1839 63.0138 30.8987C62.5243 30.6134 62.132 30.1875 61.8878 29.6763C61.6436 29.1652 61.5588 28.5923 61.6444 28.0323C61.7301 27.4723 61.9823 26.951 62.3681 26.5362C62.754 26.1214 63.2557 25.8323 63.8081 25.7064C64.3604 25.5806 64.9379 25.6238 65.4653 25.8304C65.9928 26.0371 66.4459 26.3977 66.7658 26.8653C67.0856 27.3329 67.2574 27.8859 67.2588 28.4524C67.2764 28.8113 67.222 29.1702 67.0987 29.5078C66.9754 29.8454 66.7858 30.1549 66.541 30.418C66.2962 30.6812 66.0012 30.8926 65.6734 31.0399C65.3456 31.1873 64.9916 31.2675 64.6323 31.2758ZM52.5071 25.235V27.2048H57.2346C57.1605 28.1326 56.7748 29.0081 56.1403 29.689C55.666 30.1722 55.0957 30.5504 54.4661 30.7992C53.8364 31.0481 53.1616 31.1619 52.4852 31.1335C51.092 31.1335 49.756 30.5801 48.7709 29.595C47.7858 28.6099 47.2324 27.2738 47.2324 25.8807C47.2324 24.4876 47.7858 23.1515 48.7709 22.1664C49.756 21.1813 51.092 20.6279 52.4852 20.6279C53.8208 20.608 55.1104 21.1152 56.0746 22.0396L57.4644 20.6498C56.8122 20.0047 56.0378 19.4962 55.1865 19.1542C54.3353 18.8122 53.4243 18.6435 52.5071 18.6581C51.5342 18.6202 50.5637 18.7791 49.6537 19.1253C48.7437 19.4715 47.913 19.9978 47.2113 20.6727C46.5096 21.3477 45.9514 22.1573 45.57 23.0531C45.1887 23.949 44.9922 24.9126 44.9922 25.8862C44.9922 26.8598 45.1887 27.8234 45.57 28.7192C45.9514 29.615 46.5096 30.4247 47.2113 31.0996C47.913 31.7745 48.7437 32.3008 49.6537 32.647C50.5637 32.9932 51.5342 33.1521 52.5071 33.1143C53.4432 33.1517 54.3766 32.9906 55.2461 32.6417C56.1156 32.2928 56.9014 31.7639 57.552 31.0897C58.7012 29.8273 59.3135 28.167 59.2591 26.4607C59.2631 26.05 59.2301 25.6398 59.1607 25.235H52.5071ZM102.092 26.7671C101.806 25.9275 101.272 25.1943 100.561 24.6647C99.8498 24.1351 98.9944 23.8341 98.1082 23.8015C97.5096 23.8003 96.9171 23.9219 96.3673 24.1588C95.8176 24.3957 95.3223 24.7428 94.912 25.1787C94.5018 25.6146 94.1853 26.13 93.9821 26.6931C93.7789 27.2562 93.6934 27.855 93.7308 28.4524C93.7215 29.4514 94.0355 30.4265 94.6261 31.2323C95.2167 32.038 96.0521 32.6311 97.0075 32.9229C97.963 33.2147 98.9872 33.1896 99.9272 32.8513C100.867 32.513 101.673 31.8797 102.223 31.046L100.636 29.9516C100.4 30.3459 100.064 30.6715 99.6628 30.8961C99.2616 31.1207 98.8087 31.2365 98.3489 31.232C97.8746 31.2516 97.4055 31.1272 97.0031 30.8753C96.6008 30.6233 96.2841 30.2556 96.0946 29.8203L102.321 27.2486L102.092 26.7671ZM95.7444 28.3211C95.7222 27.9817 95.7682 27.6413 95.8795 27.32C95.9909 26.9986 96.1654 26.7028 96.3928 26.4499C96.6202 26.197 96.8958 25.9922 97.2036 25.8474C97.5114 25.7027 97.845 25.621 98.1848 25.6071C98.5362 25.5846 98.8865 25.666 99.192 25.8411C99.4975 26.0163 99.7447 26.2774 99.9029 26.592L95.7444 28.3211ZM90.6885 32.8297H92.735V19.1505H90.6885V32.8297ZM87.3399 24.8411H87.2633C86.9526 24.5029 86.573 24.2351 86.1502 24.0558C85.7274 23.8765 85.2711 23.7897 84.812 23.8015C83.616 23.8594 82.4883 24.3753 81.6624 25.2422C80.8365 26.1091 80.3759 27.2605 80.3759 28.4579C80.3759 29.6552 80.8365 30.8066 81.6624 31.6735C82.4883 32.5404 83.616 33.0563 84.812 33.1143C85.2759 33.1236 85.7362 33.0303 86.16 32.8411C86.5837 32.652 86.9604 32.3716 87.2633 32.0199H87.3399V32.6875C87.3399 34.4713 86.3878 35.4233 84.8557 35.4233C84.3439 35.4121 83.847 35.249 83.4281 34.9548C83.0092 34.6606 82.6872 34.2485 82.5029 33.7709L80.7301 34.5041C81.0578 35.3273 81.6277 36.0317 82.3644 36.5241C83.101 37.0165 83.9697 37.2737 84.8557 37.2618C87.2523 37.2618 89.2331 35.8501 89.2331 32.4139V24.075H87.3399V24.8411ZM84.987 31.2758C84.27 31.2311 83.597 30.9147 83.1051 30.3912C82.6132 29.8676 82.3393 29.1763 82.3393 28.4579C82.3393 27.7395 82.6132 27.0481 83.1051 26.5245C83.597 26.001 84.27 25.6846 84.987 25.6399C85.3375 25.6551 85.6813 25.7405 85.9981 25.8912C86.3148 26.042 86.598 26.2548 86.8308 26.5172C87.0636 26.7796 87.2412 27.0862 87.3531 27.4186C87.465 27.7511 87.5089 28.1026 87.4821 28.4524C87.512 28.8033 87.4704 29.1567 87.3598 29.4911C87.2491 29.8255 87.0719 30.134 86.8386 30.3979C86.6054 30.6618 86.3211 30.8757 86.0028 31.0266C85.6846 31.1775 85.339 31.2623 84.987 31.2758ZM111.678 19.1505H106.775V32.8297H108.822V27.6426H111.678C112.261 27.6845 112.847 27.6058 113.398 27.4114C113.95 27.217 114.455 26.911 114.883 26.5127C115.311 26.1143 115.653 25.632 115.886 25.0959C116.12 24.5597 116.24 23.9813 116.24 23.3965C116.24 22.8118 116.12 22.2333 115.886 21.6972C115.653 21.1611 115.311 20.6788 114.883 20.2804C114.455 19.882 113.95 19.5761 113.398 19.3817C112.847 19.1873 112.261 19.1086 111.678 19.1505ZM111.678 25.7165H108.822V21.0547H111.722C112.343 21.0547 112.939 21.3014 113.378 21.7406C113.817 22.1798 114.064 22.7754 114.064 23.3965C114.064 24.0177 113.817 24.6133 113.378 25.0525C112.939 25.4917 112.343 25.7384 111.722 25.7384L111.678 25.7165ZM124.307 23.7577C123.561 23.7117 122.819 23.8852 122.171 24.2567C121.524 24.6282 120.999 25.1814 120.662 25.8479L122.468 26.603C122.651 26.274 122.924 26.0049 123.256 25.8282C123.589 25.6515 123.965 25.5747 124.339 25.6071C124.599 25.5768 124.862 25.5985 125.114 25.6709C125.365 25.7434 125.599 25.8652 125.803 26.0292C126.007 26.1932 126.176 26.3962 126.3 26.6262C126.425 26.8562 126.502 27.1087 126.528 27.369V27.5003C125.87 27.1544 125.138 26.9741 124.394 26.975C122.446 26.975 120.455 28.0694 120.455 30.0611C120.474 30.4844 120.578 30.8996 120.761 31.2819C120.944 31.6642 121.201 32.0058 121.519 32.2865C121.836 32.5672 122.207 32.7813 122.609 32.916C123.011 33.0506 123.435 33.1032 123.858 33.0705C124.371 33.0989 124.883 32.9902 125.341 32.7556C125.799 32.521 126.186 32.1689 126.462 31.7354H126.528V32.8297H128.498V27.566C128.498 25.1694 126.681 23.7796 124.35 23.7796L124.307 23.7577ZM124.055 31.2539C123.387 31.2539 122.457 30.9147 122.457 30.0939C122.457 28.9996 123.617 28.6275 124.646 28.6275C125.296 28.6114 125.938 28.7702 126.506 29.0871C126.438 29.6814 126.156 30.2307 125.713 30.6331C125.27 31.0355 124.697 31.2639 124.099 31.2758L124.055 31.2539ZM135.677 24.075L133.335 30.0064H133.269L130.84 24.075H128.651L132.295 32.3701L130.216 36.9773H132.405L137.953 24.075H135.677ZM117.292 32.8297H119.327V19.1505H117.292V32.8297Z" fill="white"/>
<path d="M11.6882 8.25116C11.3394 8.68239 11.1673 9.22998 11.2067 9.78324V33.99C11.1695 34.5485 11.3543 35.0992 11.7211 35.5221L11.7977 35.6096L25.3237 22.0508V21.7225L11.7648 8.17456L11.6882 8.25116Z" fill="url(#paint0_linear)"/>
<path d="M29.811 26.5704L25.3242 22.0508V21.7225L29.811 17.2029L29.9095 17.2685L35.2827 20.3108C36.8148 21.1753 36.8148 22.5979 35.2827 23.4734L29.9314 26.5157L29.811 26.5704Z" fill="url(#paint1_linear)"/>
<path d="M29.9411 26.5163L25.323 21.8872L11.6875 35.5227C11.9967 35.7979 12.3925 35.9563 12.8063 35.9703C13.2201 35.9843 13.6257 35.853 13.9528 35.5993L29.9411 26.5163Z" fill="url(#paint2_linear)"/>
<path d="M29.9411 17.2689L13.9528 8.18586C13.6278 7.9286 13.2225 7.79415 12.8082 7.80616C12.3939 7.81817 11.997 7.97587 11.6875 8.25152L25.323 21.887L29.9411 17.2689Z" fill="url(#paint3_linear)"/>
<path opacity="0.2" d="M29.8097 26.4062L13.9528 35.4347C13.6376 35.6726 13.2534 35.8013 12.8584 35.8013C12.4635 35.8013 12.0793 35.6726 11.7641 35.4347L11.6875 35.5112L11.7641 35.5988C12.0793 35.8367 12.4635 35.9654 12.8584 35.9654C13.2534 35.9654 13.6376 35.8367 13.9528 35.5988L29.9411 26.5157L29.8097 26.4062Z" fill="black"/>
<path opacity="0.12" d="M11.689 35.3689C11.3375 34.9348 11.1652 34.3828 11.2075 33.8259V33.99C11.1702 34.5486 11.3551 35.0992 11.7218 35.5221L11.7984 35.4455L11.689 35.3689Z" fill="black"/>
<path opacity="0.12" d="M35.2822 23.3099L29.8105 26.4068L29.909 26.5163L35.2822 23.4631C35.5994 23.329 35.8746 23.1118 36.0787 22.8345C36.2828 22.5572 36.4084 22.2299 36.4422 21.8872C36.3738 22.1986 36.2332 22.4896 36.0317 22.7367C35.8302 22.9838 35.5735 23.1802 35.2822 23.3099Z" fill="black"/>
<path opacity="0.25" d="M13.9538 8.33863L35.2825 20.4639C35.5737 20.5936 35.8305 20.7899 36.032 21.037C36.2334 21.2842 36.3741 21.5751 36.4425 21.8865C36.4087 21.5439 36.2831 21.2166 36.0789 20.9393C35.8748 20.662 35.5997 20.4448 35.2825 20.3107L13.9538 8.18542C12.4327 7.30995 11.207 8.03222 11.207 9.78316V9.94731C11.207 8.19637 12.4327 7.4741 13.9538 8.33863Z" fill="white"/>
<defs>
<linearGradient id="paint0_linear" x1="24.1199" y1="9.53154" x2="5.7569" y2="27.8945" gradientUnits="userSpaceOnUse">
<stop stop-color="#00A0FF"/>
<stop offset="0.01" stop-color="#00A1FF"/>
<stop offset="0.26" stop-color="#00BEFF"/>
<stop offset="0.51" stop-color="#00D2FF"/>
<stop offset="0.76" stop-color="#00DFFF"/>
<stop offset="1" stop-color="#00E3FF"/>
</linearGradient>
<linearGradient id="paint1_linear" x1="37.2853" y1="21.8866" x2="10.8133" y2="21.8866" gradientUnits="userSpaceOnUse">
<stop stop-color="#FFE000"/>
<stop offset="0.41" stop-color="#FFBD00"/>
<stop offset="0.78" stop-color="#FFA500"/>
<stop offset="1" stop-color="#FF9C00"/>
</linearGradient>
<linearGradient id="paint2_linear" x1="27.435" y1="24.4042" x2="2.52788" y2="49.3004" gradientUnits="userSpaceOnUse">
<stop stop-color="#FF3A44"/>
<stop offset="1" stop-color="#C31162"/>
</linearGradient>
<linearGradient id="paint3_linear" x1="8.25128" y1="0.197189" x2="19.3698" y2="11.3157" gradientUnits="userSpaceOnUse">
<stop stop-color="#32A071"/>
<stop offset="0.07" stop-color="#2DA771"/>
<stop offset="0.48" stop-color="#15CF74"/>
<stop offset="0.8" stop-color="#06E775"/>
<stop offset="1" stop-color="#00F076"/>
</linearGradient>
</defs>
</svg>
